<?xml version="1.0" standalone="no"?>
<!DOCTYPE svg PUBLIC "-//W3C//DTD SVG 20010904//EN"
 "http://www.w3.org/TR/2001/REC-SVG-20010904/DTD/svg10.dtd">
<svg version="1.0" xmlns="http://www.w3.org/2000/svg"
 width="512.000000pt" height="512.000000pt" viewBox="0 0 512.000000 512.000000"
 preserveAspectRatio="xMidYMid meet">
<metadata>
Created by potrace 1.16, written by Peter Selinger 2001-2019
</metadata>
<g transform="translate(0.000000,512.000000) scale(0.100000,-0.100000)"
fill="#666262" stroke="none">
<path d="M2223 5025 c-338 -76 -617 -359 -688 -695 -8 -39 -15 -89 -15 -111 0
-29 -9 -50 -37 -86 -88 -115 -128 -248 -121 -403 8 -163 63 -288 181 -412 l57
-60 0 -197 c0 -207 7 -274 42 -381 56 -176 191 -373 317 -465 l41 -30 -2 -99
-3 -99 -345 -77 c-190 -43 -381 -91 -425 -109 -176 -68 -365 -218 -475 -377
-64 -93 -132 -235 -161 -339 -22 -77 -23 -99 -26 -542 l-4 -463 2001 0 2001 0
-3 462 c-4 446 -5 466 -27 543 -29 105 -97 246 -161 339 -105 151 -288 301
-450 367 l-79 32 -3 266 -3 266 -38 79 c-50 102 -137 190 -233 237 -38 18 -70
34 -72 35 -2 1 4 36 12 78 11 53 16 133 16 275 l0 199 55 56 c220 226 247 577
62 819 -27 34 -37 57 -37 83 0 54 -29 182 -57 254 -58 145 -184 309 -312 403
-67 49 -184 108 -276 138 -66 22 -88 23 -370 25 -228 2 -315 -1 -362 -11z
m688 -173 c236 -63 427 -245 493 -470 15 -51 14 -54 -2 -47 -9 4 -46 20 -82
34 l-65 26 -695 0 -695 0 -65 -26 c-36 -14 -73 -30 -82 -34 -16 -7 -17 -4 -2
47 63 215 250 400 466 463 98 28 176 34 418 31 199 -3 247 -7 311 -24z m368
-640 c124 -45 210 -119 264 -227 39 -77 50 -132 50 -230 -1 -224 -130 -395
-343 -456 -25 -7 -99 -13 -165 -13 -108 -1 -124 1 -157 22 -20 13 -47 39 -59
58 -57 92 -181 154 -309 154 -128 0 -231 -49 -302 -143 -18 -25 -48 -55 -67
-68 -32 -22 -44 -24 -155 -23 -128 1 -181 11 -259 50 -159 79 -249 231 -250
419 0 98 11 153 50 230 65 131 186 218 338 245 28 4 331 7 675 7 l625 -2 64
-23z m-605 -881 c19 -12 45 -38 57 -57 30 -49 108 -108 174 -133 78 -29 269
-30 373 -1 39 11 75 20 78 20 11 0 -4 -321 -18 -380 l-13 -55 -186 -3 -186 -2
-19 42 c-28 65 -101 137 -169 169 -57 28 -66 29 -205 29 -139 0 -147 -1 -205
-29 -118 -57 -195 -171 -195 -291 0 -120 81 -239 200 -294 51 -24 66 -26 200
-26 139 0 148 1 205 29 68 32 141 104 169 169 l19 42 149 0 c81 0 148 -3 148
-6 0 -16 -92 -133 -136 -174 -155 -145 -331 -212 -554 -212 -96 0 -144 5 -205
21 -288 77 -490 279 -565 566 -16 58 -23 125 -27 244 l-6 164 24 -7 c123 -35
147 -38 273 -34 181 4 222 24 358 176 20 23 52 46 70 51 52 16 151 7 192 -18z
m52 -555 c46 -28 68 -72 68 -136 0 -64 -22 -108 -68 -136 -26 -16 -51 -19
-166 -19 -151 0 -180 10 -216 69 -24 41 -24 131 1 173 35 60 79 73 235 70 90
-2 122 -7 146 -21z m791 -258 c24 -11 60 -40 82 -64 67 -77 74 -109 79 -365
l4 -226 -279 62 -278 62 -2 99 -3 99 52 40 c28 22 76 69 107 105 49 57 75 94
138 198 16 26 28 24 100 -10z m-1210 -485 c81 -25 102 -27 253 -27 151 0 172
2 253 27 49 15 102 34 118 42 l29 16 0 -120 0 -119 51 -11 c28 -6 82 -18 120
-27 l69 -16 0 -251 c0 -249 1 -253 26 -307 31 -68 93 -133 159 -168 45 -24 64
-27 200 -32 208 -8 238 -28 254 -172 14 -128 87 -229 201 -282 51 -24 65 -26
208 -26 l152 0 0 -160 0 -160 -320 0 -320 0 0 160 0 160 -80 0 -80 0 0 -160 0
-160 -1040 0 -1040 0 0 160 0 160 -80 0 -80 0 0 -160 0 -160 -320 0 -320 0 0
160 0 160 153 0 c142 0 156 2 207 26 114 53 187 154 201 282 16 144 46 164
254 172 137 5 154 8 200 32 66 35 128 100 159 168 25 54 26 58 26 307 l0 251
69 16 c38 9 92 21 120 27 l51 11 0 119 0 120 29 -16 c16 -8 69 -27 118 -42z
m-549 -502 c-3 -214 -4 -232 -24 -257 -47 -63 -62 -68 -227 -74 -139 -5 -156
-8 -202 -32 -61 -32 -125 -97 -155 -157 -12 -25 -27 -79 -32 -120 -18 -145
-45 -164 -250 -169 l-148 -4 0 69 c0 251 80 473 230 636 134 146 273 218 530
277 96 22 191 44 210 49 77 20 72 38 68 -218z m1798 189 c233 -52 274 -65 358
-107 316 -159 485 -449 486 -831 l0 -64 -149 4 c-132 3 -153 5 -177 24 -49 36
-64 66 -73 144 -5 43 -18 95 -31 120 -30 61 -94 126 -155 158 -45 24 -64 27
-200 32 -166 7 -196 16 -231 74 -17 27 -19 57 -22 259 -2 135 0 227 6 227 5 0
90 -18 188 -40z"/>
<path d="M1920 4080 l0 -80 480 0 480 0 0 80 0 80 -480 0 -480 0 0 -80z"/>
<path d="M3040 4080 l0 -80 80 0 80 0 0 80 0 80 -80 0 -80 0 0 -80z"/>
</g>
</svg>
