<?xml version="1.0" standalone="no"?>
<!DOCTYPE svg PUBLIC "-//W3C//DTD SVG 20010904//EN"
 "http://www.w3.org/TR/2001/REC-SVG-20010904/DTD/svg10.dtd">
<svg version="1.0" xmlns="http://www.w3.org/2000/svg"
 width="512.000000pt" height="512.000000pt" viewBox="0 0 512.000000 512.000000"
 preserveAspectRatio="xMidYMid meet">
<metadata>
Created by potrace 1.16, written by Peter Selinger 2001-2019
</metadata>
<g transform="translate(0.000000,512.000000) scale(0.100000,-0.100000)"
fill="#666262" stroke="none">
<path d="M3489 4834 c-316 -57 -602 -272 -749 -564 -178 -353 -137 -768 109
-1100 35 -47 703 -808 815 -928 10 -10 94 79 415 441 221 249 425 487 453 527
64 96 119 211 154 325 26 84 28 102 28 270 0 201 -12 262 -78 416 -70 161
-212 335 -356 437 -222 158 -524 225 -791 176z m408 -164 c180 -45 370 -171
485 -320 212 -276 246 -626 91 -935 -60 -120 -118 -191 -462 -579 -267 -301
-337 -374 -347 -364 -131 139 -682 774 -717 826 -113 168 -159 314 -160 502
-1 145 22 255 77 374 181 393 614 601 1033 496z"/>
<path d="M3593 4210 c-69 -14 -155 -61 -209 -114 -200 -201 -144 -536 111
-662 171 -85 364 -45 493 101 142 162 133 405 -20 558 -101 101 -238 144 -375
117z m169 -162 c45 -13 122 -77 143 -118 23 -45 36 -120 29 -166 -10 -69 -61
-144 -122 -181 -104 -62 -222 -51 -309 30 -61 55 -83 105 -83 187 0 110 50
191 145 236 56 27 133 31 197 12z"/>
<path d="M2190 4299 c-372 -43 -744 -199 -1040 -436 -403 -322 -675 -813 -740
-1333 -13 -109 -13 -371 0 -480 47 -373 201 -738 437 -1030 79 -98 262 -274
359 -346 345 -256 720 -386 1149 -401 598 -20 1173 227 1572 677 91 102 224
294 275 393 17 34 34 63 39 65 5 2 9 9 9 16 0 6 18 57 41 111 52 127 104 316
126 458 26 166 23 451 -6 622 -12 71 -25 133 -30 138 -5 5 -35 -21 -68 -57
l-59 -66 13 -83 c17 -118 16 -398 -3 -524 -18 -127 -52 -259 -93 -374 l-32
-86 -536 0 -536 -1 6 72 c4 39 12 127 18 196 7 69 13 275 13 457 l1 333 -85
85 -85 85 -517 0 c-285 0 -518 3 -518 8 0 36 36 306 56 422 107 614 318 1000
507 926 23 -9 42 -15 43 -13 1 1 13 34 27 72 14 39 28 78 32 88 7 16 -4 17
-146 16 -85 -1 -188 -5 -229 -10z m-80 -175 c0 -3 -13 -24 -29 -47 -135 -198
-250 -591 -311 -1070 -11 -84 -20 -167 -20 -184 l0 -33 -566 0 -566 0 7 28 c3
15 23 70 42 122 177 475 550 868 1010 1064 110 47 158 63 288 97 111 28 145
34 145 23z m-380 -1811 c0 -284 15 -582 36 -709 l6 -41 -538 1 -539 1 -32 85
c-106 283 -143 679 -87 953 l6 27 574 0 574 0 0 -317z m1217 -85 c-5 -357 -11
-472 -32 -624 l-6 -41 -493 0 -493 -1 -12 112 c-28 267 -41 762 -25 904 l7 52
530 0 529 0 -5 -402z m-1152 -840 c2 -13 12 -63 21 -113 52 -298 165 -627 264
-770 18 -26 29 -49 26 -52 -9 -9 -191 36 -299 74 -426 148 -783 443 -1011 836
l-28 47 511 0 511 0 5 -22z m1075 -75 c-52 -290 -145 -566 -239 -716 -51 -79
-125 -150 -175 -167 -155 -51 -331 213 -446 669 -28 115 -60 270 -60 297 0 12
75 14 469 14 l468 0 -17 -97z m1190 92 c0 -3 -23 -42 -51 -88 -234 -379 -603
-670 -1011 -801 -98 -31 -240 -66 -268 -66 -5 0 13 37 40 83 98 163 189 433
246 730 l28 147 508 0 c279 0 508 -2 508 -5z"/>
</g>
</svg>
