<?xml version="1.0" standalone="no"?>
<!DOCTYPE svg PUBLIC "-//W3C//DTD SVG 20010904//EN"
 "http://www.w3.org/TR/2001/REC-SVG-20010904/DTD/svg10.dtd">
<svg version="1.0" xmlns="http://www.w3.org/2000/svg"
 width="330.000000pt" height="150.000000pt" viewBox="0 0 330.000000 150.000000"
 preserveAspectRatio="xMidYMid meet">
<metadata>
Created by potrace 1.16, written by Peter Selinger 2001-2019
</metadata>
<g transform="translate(0.000000,150.000000) scale(0.100000,-0.100000)"
fill="#fff" stroke="none">
<path d="M636 1143 c-3 -10 -10 -47 -16 -83 -6 -36 -12 -74 -15 -85 -2 -12
-23 -29 -52 -42 -116 -53 -186 -153 -182 -260 2 -57 1 -59 -48 -109 -32 -32
-56 -69 -66 -99 -10 -27 -16 -50 -14 -51 2 -2 25 13 53 32 27 19 69 44 94 55
44 20 46 20 95 2 71 -26 259 -26 330 0 49 18 51 18 97 -2 26 -12 68 -38 94
-57 25 -19 47 -34 49 -32 2 2 -6 27 -17 57 -13 34 -38 71 -67 100 -45 45 -46
47 -43 102 6 101 -68 209 -180 262 l-55 26 -12 78 c-16 103 -22 123 -31 123
-5 0 -11 -8 -14 -17z m167 -545 c31 -15 57 -31 57 -37 0 -5 -21 -20 -47 -32
-40 -19 -65 -23 -148 -24 -116 0 -157 7 -204 36 l-34 20 29 18 c96 59 242 66
347 19z"/>
<path d="M1400 1110 c0 -7 272 -10 795 -10 523 0 795 3 795 10 0 7 -272 10
-795 10 -523 0 -795 -3 -795 -10z"/>
<path d="M1494 952 c-56 -27 -84 -74 -84 -143 0 -72 32 -120 95 -144 74 -29
139 -9 189 59 29 39 29 133 0 172 -51 69 -126 90 -200 56z m152 -56 c30 -30
34 -40 34 -86 0 -46 -4 -56 -34 -86 -28 -28 -42 -34 -75 -34 -56 0 -95 22
-115 64 -20 43 -20 69 0 112 21 43 56 63 113 64 36 0 49 -6 77 -34z"/>
<path d="M1800 810 c0 -127 2 -150 15 -150 12 0 15 15 15 75 l0 75 39 0 c38 0
41 -2 87 -75 31 -49 54 -75 66 -75 10 0 18 2 18 4 0 3 -23 41 -52 86 l-52 82
20 37 c12 20 35 43 52 51 42 20 42 42 0 38 -27 -2 -39 -12 -67 -55 -31 -49
-37 -53 -72 -53 l-39 0 0 55 c0 42 -3 55 -15 55 -13 0 -15 -23 -15 -150z"/>
<path d="M2130 810 l0 -150 95 0 c88 0 95 1 95 20 0 18 -7 20 -80 20 l-80 0 0
45 0 45 70 0 c63 0 70 2 70 20 0 18 -7 20 -70 20 l-70 0 0 45 0 45 75 0 c68 0
75 2 75 20 0 19 -7 20 -90 20 l-90 0 0 -150z"/>
<path d="M2501 938 c-5 -13 -34 -80 -64 -150 -48 -112 -53 -128 -37 -128 13 0
26 15 39 45 l20 45 71 0 71 0 20 -45 c14 -31 26 -45 39 -45 21 0 28 -20 -73
215 -26 61 -39 81 -55 83 -15 2 -25 -4 -31 -20z"/>
<path d="M2750 810 c0 -127 2 -150 15 -150 12 0 15 14 15 65 l0 65 85 0 85 0
0 -65 c0 -58 2 -65 20 -65 19 0 20 7 20 150 0 143 -1 150 -20 150 -18 0 -20
-7 -20 -65 l0 -65 -85 0 -85 0 0 65 c0 51 -3 65 -15 65 -13 0 -15 -23 -15
-150z"/>
<path d="M1400 460 c0 -7 272 -10 795 -10 523 0 795 3 795 10 0 7 -272 10
-795 10 -523 0 -795 -3 -795 -10z"/>
</g>
</svg>
