<?xml version="1.0" standalone="no"?>
<!DOCTYPE svg PUBLIC "-//W3C//DTD SVG 20010904//EN"
 "http://www.w3.org/TR/2001/REC-SVG-20010904/DTD/svg10.dtd">
<svg version="1.0" xmlns="http://www.w3.org/2000/svg"
 width="512.000000pt" height="512.000000pt" viewBox="0 0 512.000000 512.000000"
 preserveAspectRatio="xMidYMid meet">
<metadata>
Created by potrace 1.16, written by Peter Selinger 2001-2019
</metadata>
<g transform="translate(0.000000,512.000000) scale(0.100000,-0.100000)"
fill="#666262" stroke="none">
<path d="M790 2560 l0 -2360 1770 0 1770 0 0 2360 0 2360 -1770 0 -1770 0 0
-2360z m3380 0 l0 -2200 -1610 0 -1610 0 0 2200 0 2200 1610 0 1610 0 0 -2200z"/>
<path d="M1417 4605 c-31 -51 -34 -59 -25 -94 14 -56 -4 -111 -51 -154 -44
-39 -108 -56 -152 -38 -23 8 -35 4 -83 -25 l-56 -36 0 -1701 1 -1702 52 -31
c46 -28 58 -31 109 -27 35 3 70 1 88 -7 66 -27 110 -117 91 -186 -9 -33 -7
-42 24 -90 l35 -54 1112 0 1113 0 30 51 c26 44 29 58 27 117 -5 118 52 175
170 170 59 -2 73 1 118 27 l50 29 0 1703 0 1702 -55 35 c-48 31 -58 34 -82 25
-58 -22 -154 16 -184 74 -20 37 -28 87 -18 122 9 30 6 40 -26 89 l-36 56
-1109 0 -1108 0 -35 -55z m2149 -114 c-8 -13 13 -121 31 -156 49 -96 153 -169
261 -182 l52 -6 0 -1593 0 -1594 -42 0 c-74 0 -137 -29 -204 -95 -65 -64 -91
-119 -96 -202 l-3 -43 -1001 0 -1002 0 -6 53 c-19 152 -143 275 -288 285 l-58
4 0 1593 0 1593 53 6 c65 8 141 43 190 85 46 41 94 136 102 206 l7 55 1005 0
c579 0 1002 -4 999 -9z"/>
<path d="M1980 3970 l0 -80 580 0 580 0 0 80 0 80 -580 0 -580 0 0 -80z"/>
<path d="M1490 3450 l0 -80 1070 0 1070 0 0 80 0 80 -1070 0 -1070 0 0 -80z"/>
<path d="M1560 3150 l0 -80 1000 0 1000 0 0 80 0 80 -1000 0 -1000 0 0 -80z"/>
<path d="M1697 2813 c-4 -3 -7 -39 -7 -80 l0 -73 870 0 871 0 -3 78 -3 77
-861 3 c-473 1 -864 -1 -867 -5z"/>
<path d="M2990 2429 c-30 -5 -88 -25 -129 -45 -274 -135 -363 -492 -181 -732
l40 -52 0 -313 0 -313 64 -31 64 -32 113 85 c62 46 115 84 117 84 3 0 55 -38
116 -84 l112 -83 62 31 62 30 0 309 0 309 34 47 c73 100 106 193 106 301 0
259 -198 473 -460 493 -36 3 -90 1 -120 -4z m152 -160 c104 -22 178 -78 229
-171 32 -59 34 -69 34 -153 0 -71 -5 -100 -22 -137 -30 -66 -96 -133 -162
-165 -49 -24 -68 -28 -146 -28 -84 0 -95 2 -153 34 -114 62 -175 163 -176 291
0 61 5 86 27 135 47 102 137 174 241 195 59 11 69 11 128 -1z m-67 -813 c78 0
122 4 153 16 l42 16 0 -174 0 -174 -73 55 c-64 48 -80 55 -119 55 -38 0 -54
-7 -118 -55 -40 -30 -75 -55 -77 -55 -2 0 -3 79 -3 175 l0 174 43 -16 c29 -12
75 -17 152 -17z"/>
<path d="M1460 2020 l0 -80 310 0 310 0 0 80 0 80 -310 0 -310 0 0 -80z"/>
<path d="M1460 1660 l0 -80 210 0 210 0 0 80 0 80 -210 0 -210 0 0 -80z"/>
</g>
</svg>
