<?xml version="1.0" standalone="no"?>
<!DOCTYPE svg PUBLIC "-//W3C//DTD SVG 20010904//EN"
 "http://www.w3.org/TR/2001/REC-SVG-20010904/DTD/svg10.dtd">
<svg version="1.0" xmlns="http://www.w3.org/2000/svg"
 width="512.000000pt" height="512.000000pt" viewBox="0 0 512.000000 512.000000"
 preserveAspectRatio="xMidYMid meet">
<metadata>
Created by potrace 1.16, written by Peter Selinger 2001-2019
</metadata>
<g transform="translate(0.000000,512.000000) scale(0.100000,-0.100000)"
fill="#000000" stroke="none">
<path d="M430 2560 l0 -2280 1720 0 1720 0 0 155 0 155 310 0 c354 0 353 0
428 85 63 72 74 115 80 306 4 165 4 166 -21 195 l-25 29 -171 3 c-152 3 -171
5 -171 20 0 9 -14 40 -30 69 -33 58 -93 100 -156 110 l-37 6 5 136 c8 195 32
261 150 410 113 141 154 260 145 416 -9 155 -69 280 -185 386 -66 61 -174 117
-256 133 l-61 13 -5 511 -5 511 -449 443 c-247 244 -458 448 -470 455 -16 9
-309 12 -1268 13 l-1248 0 0 -2280z m2410 1706 l0 -415 26 -20 c26 -20 37 -21
435 -21 l409 0 0 -454 0 -453 -71 -23 c-140 -45 -269 -159 -333 -293 -98 -206
-70 -427 78 -610 122 -151 155 -239 163 -435 5 -122 4 -132 -12 -132 -79 0
-176 -76 -197 -154 l-12 -45 -169 -3 -169 -3 -25 -29 c-25 -29 -25 -30 -21
-200 3 -159 5 -175 29 -227 30 -64 87 -125 135 -145 26 -11 98 -14 319 -14
l285 0 0 -75 0 -75 -1560 0 -1560 0 0 2120 0 2120 1125 0 1125 0 0 -414z m450
-11 l285 -285 -288 0 -287 0 0 285 c0 157 1 285 3 285 1 0 130 -128 287 -285z
m670 -1534 c155 -59 260 -213 260 -382 0 -70 -31 -172 -68 -220 -15 -20 -49
-65 -76 -100 -27 -35 -64 -95 -82 -134 -59 -124 -67 -168 -71 -412 l-5 -223
94 0 c82 0 97 -3 113 -20 18 -20 17 -20 -310 -20 -327 0 -328 0 -310 20 16 17
31 20 113 20 l94 0 -5 218 c-3 155 -9 236 -21 282 -25 97 -87 215 -157 300
-94 114 -113 162 -113 290 -1 94 2 111 27 164 54 115 127 182 246 223 81 29
186 26 271 -6z m570 -1763 c-1 -96 -15 -155 -46 -189 -17 -18 -37 -19 -669
-19 -613 0 -653 1 -668 18 -34 37 -47 90 -47 187 l0 95 715 0 715 0 0 -92z"/>
<path d="M1410 3480 l0 -80 750 0 750 0 0 80 0 80 -750 0 -750 0 0 -80z"/>
<path d="M980 3070 l0 -80 1200 0 1200 0 0 80 0 80 -1200 0 -1200 0 0 -80z"/>
<path d="M1150 2610 l0 -80 975 0 975 0 0 80 0 80 -975 0 -975 0 0 -80z"/>
<path d="M840 1430 l0 -80 565 0 565 0 0 80 0 80 -565 0 -565 0 0 -80z"/>
</g>
</svg>
