<?xml version="1.0" standalone="no"?>
<!DOCTYPE svg PUBLIC "-//W3C//DTD SVG 20010904//EN"
 "http://www.w3.org/TR/2001/REC-SVG-20010904/DTD/svg10.dtd">
<svg version="1.0" xmlns="http://www.w3.org/2000/svg"
 width="466.000000pt" height="118.000000pt" viewBox="0 0 466.000000 118.000000"
 preserveAspectRatio="xMidYMid meet">
<metadata>
Created by potrace 1.16, written by Peter Selinger 2001-2019
</metadata>
<g transform="translate(0.000000,118.000000) scale(0.100000,-0.100000)"
fill="#2c69ec" stroke="none">
<path d="M1943 1172 c-12 -2 -47 -32 -78 -67 -40 -46 -74 -73 -120 -96 -60
-29 -69 -31 -157 -27 -116 4 -164 26 -264 121 -97 92 -117 92 -215 1 -78 -71
-146 -110 -214 -123 -93 -17 -215 23 -321 107 -97 77 -118 77 -196 7 -88 -79
-195 -125 -289 -125 -52 0 -94 -48 -85 -99 8 -53 45 -81 106 -81 104 0 221 40
312 106 l49 37 28 -21 c15 -11 60 -36 99 -56 192 -97 376 -83 547 39 72 52 74
53 91 34 28 -31 105 -77 179 -105 60 -24 85 -28 180 -28 96 -1 119 2 185 27
41 15 99 45 128 68 l54 40 66 -45 c88 -60 166 -86 277 -93 133 -8 233 22 348
103 26 19 50 34 53 34 3 0 20 -11 37 -24 45 -34 151 -82 222 -101 145 -37 301
0 431 103 l50 39 34 -29 c50 -43 160 -96 232 -113 152 -36 324 0 434 90 23 19
45 35 48 35 3 0 25 -15 48 -33 85 -64 211 -107 315 -107 36 0 50 6 74 29 38
38 39 80 2 120 -24 26 -39 32 -107 41 -101 13 -163 47 -233 126 -83 94 -107
92 -216 -19 -54 -55 -85 -77 -124 -90 -56 -20 -167 -24 -221 -8 -59 18 -138
70 -189 126 -46 50 -55 55 -92 55 -37 0 -48 -6 -103 -60 -69 -67 -154 -116
-222 -129 -95 -17 -221 26 -328 113 -29 24 -63 46 -74 50 -31 9 -70 -9 -124
-57 -178 -160 -421 -146 -553 34 -28 39 -66 57 -104 51z"/>
<path d="M2300 383 c-8 -3 -45 -34 -81 -68 -37 -34 -93 -75 -125 -91 -50 -25
-71 -29 -139 -29 -69 1 -90 5 -148 33 -38 17 -96 52 -129 77 -73 55 -108 58
-164 15 -21 -16 -56 -43 -78 -60 -53 -41 -137 -70 -201 -70 -71 0 -115 -34
-115 -89 0 -79 53 -108 169 -91 80 11 204 63 262 110 l36 29 48 -34 c26 -19
82 -48 124 -66 64 -27 92 -33 177 -37 136 -6 225 22 341 109 l52 39 47 -36
c106 -80 207 -114 339 -114 131 0 220 29 318 104 l46 35 38 -31 c97 -77 218
-115 351 -109 64 3 94 94 49 147 -20 23 -35 29 -97 35 -89 10 -165 45 -217
101 -21 22 -50 53 -65 69 -46 51 -78 42 -162 -45 -95 -100 -141 -121 -261
-121 -82 0 -97 3 -156 32 -41 21 -85 53 -118 88 -69 73 -95 85 -141 68z"/>
</g>
</svg>
